<svg width="770" height="156" viewBox="0 0 770 156" fill="none" xmlns="http://www.w3.org/2000/svg">
<path d="M6.87866 41.7494C6.87866 32.9128 14.0421 25.7494 22.8787 25.7494H42.9917V130.826H22.8787C14.0421 130.826 6.87866 123.662 6.87866 114.826V41.7494Z" fill="#23374D"/>
<path d="M11.5864 38.8852L33.6684 12.0811L79.5962 58.4006L68.7883 69.9487C62.7501 76.4004 52.5935 76.7696 46.1028 70.7732L11.5864 38.8852Z" fill="#1089FF"/>
<path d="M0 28.0811C0 19.2446 7.16345 12.0811 16 12.0811H33.5335V147.057H16C7.16343 147.057 0 139.894 0 131.057V28.0811Z" fill="#1089FF"/>
<path d="M101.46 66.7548H134.994V131.057C134.994 139.894 127.831 147.057 118.994 147.057H117.46C108.624 147.057 101.46 139.894 101.46 131.057V66.7548Z" fill="#23374D"/>
<path d="M110.059 78.715H143.842V130.848C143.842 139.684 136.678 146.848 127.842 146.848H126.059C117.222 146.848 110.059 139.684 110.059 130.848V78.715Z" fill="#1089FF"/>
<path d="M110.059 58.6039C110.059 40.9308 124.386 26.6039 142.059 26.6039H143.842V117.872H110.059V58.6039Z" fill="#1089FF"/>
<path d="M120.894 16.6396C125.832 11.2912 134.196 10.9304 139.577 15.8338C144.957 20.7372 145.315 29.048 140.377 34.3964L112.913 64.1426C106.919 70.6351 96.7652 71.073 90.2342 65.1207L82.5763 58.1415L120.894 16.6396Z" fill="#1089FF"/>
<path d="M81.3611 59.3397L87.5411 64.972C94.0722 70.9243 94.5073 81.0128 88.5129 87.5053L33.5723 147.012L15.5668 130.602L81.3611 59.3397Z" fill="#1089FF"/>
<path d="M262.89 40.534C268.434 40.534 273.465 41.8687 277.982 44.538C282.499 47.1047 286.041 50.7493 288.608 55.472C291.277 60.1947 292.612 65.482 292.612 71.334V121.846H267.664V75.954C267.664 71.95 266.483 68.6647 264.122 66.098C261.761 63.5313 258.732 62.248 255.036 62.248C251.135 62.248 247.901 63.48 245.334 65.944C242.87 68.3053 241.638 71.2827 241.638 74.876V121.846H216.69V75.954C216.69 71.95 215.509 68.6647 213.148 66.098C210.787 63.5313 207.758 62.248 204.062 62.248C200.161 62.248 196.978 63.4287 194.514 65.79C192.05 68.1513 190.818 71.18 190.818 74.876V121.846H164.638V42.382H190.818V52.392C192.769 48.696 195.592 45.8213 199.288 43.768C202.984 41.612 207.193 40.534 211.916 40.534C217.255 40.534 222.131 41.8173 226.546 44.384C231.063 46.848 234.657 50.2873 237.326 54.702C239.482 50.2873 242.767 46.848 247.182 44.384C251.699 41.8173 256.935 40.534 262.89 40.534ZM333.059 103.982C336.344 103.982 339.681 103.366 343.069 102.134C346.559 100.799 349.588 99.054 352.155 96.898L366.631 111.528C363.14 115.121 358.315 118.099 352.155 120.46C346.097 122.719 340.04 123.848 333.983 123.848C325.872 123.848 318.531 122.051 311.961 118.458C305.39 114.865 300.205 109.885 296.407 103.52C292.608 97.1547 290.709 89.968 290.709 81.96C290.709 74.0547 292.557 66.9707 296.253 60.708C299.949 54.3427 304.979 49.4147 311.345 45.924C317.813 42.3307 324.999 40.534 332.905 40.534C341.323 40.534 348.561 42.4847 354.619 46.386C360.676 50.1847 365.347 55.7287 368.633 63.018C371.918 70.2047 373.561 78.7773 373.561 88.736H315.349C316.375 93.356 318.429 97.052 321.509 99.824C324.691 102.596 328.541 103.982 333.059 103.982ZM332.905 60.4C328.695 60.4 325.051 61.632 321.971 64.096C318.993 66.56 316.889 69.8967 315.657 74.106H348.613C347.689 69.8967 345.841 66.56 343.069 64.096C340.399 61.632 337.011 60.4 332.905 60.4ZM409.77 103.982C413.055 103.982 416.392 103.366 419.78 102.134C423.271 100.799 426.299 99.054 428.866 96.898L443.342 111.528C439.851 115.121 435.026 118.099 428.866 120.46C422.809 122.719 416.751 123.848 410.694 123.848C402.583 123.848 395.243 122.051 388.672 118.458C382.101 114.865 376.917 109.885 373.118 103.52C369.319 97.1547 367.42 89.968 367.42 81.96C367.42 74.0547 369.268 66.9707 372.964 60.708C376.66 54.3427 381.691 49.4147 388.056 45.924C394.524 42.3307 401.711 40.534 409.616 40.534C418.035 40.534 425.273 42.4847 431.33 46.386C437.387 50.1847 442.059 55.7287 445.344 63.018C448.629 70.2047 450.272 78.7773 450.272 88.736H392.06C393.087 93.356 395.14 97.052 398.22 99.824C401.403 102.596 405.253 103.982 409.77 103.982ZM409.616 60.4C405.407 60.4 401.762 61.632 398.682 64.096C395.705 66.56 393.6 69.8967 392.368 74.106H425.324C424.4 69.8967 422.552 66.56 419.78 64.096C417.111 61.632 413.723 60.4 409.616 60.4ZM497.158 116.302C494.797 118.561 491.819 120.409 488.226 121.846C484.633 123.181 481.142 123.848 477.754 123.848C470.259 123.848 464.151 121.487 459.428 116.764C454.705 111.939 452.344 105.779 452.344 98.284V63.172H441.872V42.382H452.344V20.514H477.292V42.382H493.77V63.172H477.292V93.51C477.292 96.0767 477.959 98.1813 479.294 99.824C480.731 101.364 482.477 102.134 484.53 102.134C485.967 102.134 487.353 101.929 488.688 101.518C490.023 101.005 491.101 100.337 491.922 99.516L497.158 116.302Z" fill="#23374D"/>
<path d="M551.326 19.1829C563.235 19.1829 573.861 21.4416 583.204 25.9589C592.649 30.4762 599.99 36.7389 605.226 44.7469C610.564 52.7549 613.234 61.8409 613.234 72.0049C613.234 82.1689 610.564 91.3062 605.226 99.4169C599.99 107.425 592.649 113.688 583.204 118.205C573.861 122.722 563.235 124.981 551.326 124.981H512.518V19.1829H551.326ZM555.176 101.111C561.13 101.111 566.469 99.8789 571.192 97.4149C575.914 94.8482 579.559 91.3576 582.126 86.9429C584.795 82.5282 586.13 77.5489 586.13 72.0049C586.13 66.4609 584.795 61.4816 582.126 57.0669C579.559 52.6522 575.914 49.2129 571.192 46.7489C566.469 44.2849 561.13 43.0529 555.176 43.0529H538.852V101.111H555.176ZM674.538 45.3629H701.488L721.2 95.1049L740.45 45.3629H767.4L733.212 124.981H709.034L674.538 45.3629Z" fill="#23374D"/>
<path d="M646.798 106.963C650.084 106.963 653.42 106.347 656.808 105.115C660.299 103.78 663.328 102.035 665.894 99.8789L680.37 114.509C676.88 118.102 672.054 121.08 665.894 123.441C659.837 125.7 653.78 126.829 647.722 126.829C639.612 126.829 632.271 125.032 625.7 121.439C619.13 117.846 613.945 112.866 610.146 106.501C606.348 100.136 604.448 92.9489 604.448 84.9409C604.448 77.0356 606.296 69.9516 609.992 63.6889C613.688 57.3236 618.719 52.3956 625.084 48.9049C631.552 45.3116 638.739 43.5149 646.644 43.5149C655.063 43.5149 662.301 45.4656 668.358 49.3669C674.416 53.1656 679.087 58.7096 682.372 65.9989C685.658 73.1856 687.3 81.7582 687.3 91.7169H629.088C630.115 96.3369 632.168 100.033 635.248 102.805C638.431 105.577 642.281 106.963 646.798 106.963ZM646.644 63.3809C642.435 63.3809 638.79 64.6129 635.71 67.0769C632.733 69.5409 630.628 72.8776 629.396 77.0869H662.352C661.428 72.8776 659.58 69.5409 656.808 67.0769C654.139 64.6129 650.751 63.3809 646.644 63.3809Z" fill="#1089FF"/>
</svg>
