<svg width="110" height="110" viewBox="0 0 110 110" fill="none" xmlns="http://www.w3.org/2000/svg">
<path d="M55 0C24.6733 0 0 24.6733 0 55C0 85.3267 24.6733 110 55 110C85.3267 110 110 85.3267 110 55C110 24.6733 85.3267 0 55 0ZM76.1538 59.2308H59.2308V76.1538C59.2308 77.2759 58.785 78.352 57.9916 79.1455C57.1982 79.9389 56.1221 80.3846 55 80.3846C53.8779 80.3846 52.8018 79.9389 52.0084 79.1455C51.215 78.352 50.7692 77.2759 50.7692 76.1538V59.2308H33.8462C32.7241 59.2308 31.648 58.785 30.8545 57.9916C30.0611 57.1982 29.6154 56.1221 29.6154 55C29.6154 53.8779 30.0611 52.8018 30.8545 52.0084C31.648 51.215 32.7241 50.7692 33.8462 50.7692H50.7692V33.8462C50.7692 32.7241 51.215 31.648 52.0084 30.8545C52.8018 30.0611 53.8779 29.6154 55 29.6154C56.1221 29.6154 57.1982 30.0611 57.9916 30.8545C58.785 31.648 59.2308 32.7241 59.2308 33.8462V50.7692H76.1538C77.2759 50.7692 78.352 51.215 79.1455 52.0084C79.9389 52.8018 80.3846 53.8779 80.3846 55C80.3846 56.1221 79.9389 57.1982 79.1455 57.9916C78.352 58.785 77.2759 59.2308 76.1538 59.2308Z" fill="#1089FF"/>
</svg>
