<svg width="94" height="109" viewBox="0 0 94 109" fill="none" xmlns="http://www.w3.org/2000/svg">
<path d="M62.626 85.5769V89.4615C62.626 93.5826 60.98 97.5349 58.0501 100.449C55.1202 103.363 51.1464 105 47.0029 105C42.8594 105 38.8856 103.363 35.9557 100.449C33.0258 97.5349 31.3798 93.5826 31.3798 89.4615V85.5769M88.9119 77.6693C82.6432 70.0385 78.2174 66.1538 78.2174 45.1162C78.2174 25.851 68.326 18.9873 60.1849 15.6538C59.1035 15.212 58.0856 14.1971 57.756 13.0924C56.328 8.25851 52.3245 4 47.0029 4C41.6813 4 37.6754 8.26094 36.262 13.0973C35.9325 14.2141 34.9145 15.212 33.8331 15.6538C25.6822 18.9922 15.8006 25.8315 15.8006 45.1162C15.7884 66.1538 11.3627 70.0385 5.09391 77.6693C2.49657 80.8304 4.77168 85.5769 9.31459 85.5769H84.7157C89.2342 85.5769 91.4946 80.8158 88.9119 77.6693Z" stroke="#1089FF" stroke-width="7" stroke-linecap="round" stroke-linejoin="round"/>
</svg>
