<svg width="112" height="128" viewBox="0 0 112 128" fill="none" xmlns="http://www.w3.org/2000/svg">
<path d="M74.1698 100.308V104.846C74.1698 109.661 72.2558 114.278 68.849 117.683C65.4421 121.087 60.8214 123 56.0034 123C51.1854 123 46.5647 121.087 43.1578 117.683C39.7509 114.278 37.837 109.661 37.837 104.846V100.308M104.735 91.0691C97.4455 82.1538 92.2993 77.6154 92.2993 53.0368C92.2993 30.5288 80.7977 22.51 71.3313 18.6154C70.0738 18.0991 68.8902 16.9135 68.507 15.6228C66.8465 9.97529 62.1913 5 56.0034 5C49.8155 5 45.1575 9.97813 43.514 15.6285C43.1308 16.9333 41.9471 18.0991 40.6897 18.6154C31.2119 22.5156 19.7217 30.5062 19.7217 53.0368C19.7075 77.6154 14.5613 82.1538 7.27199 91.0691C4.25182 94.7623 6.8973 100.308 12.1798 100.308H99.8554C105.109 100.308 107.738 94.7452 104.735 91.0691Z" stroke="#1089FF" stroke-width="10" stroke-linecap="round" stroke-linejoin="round"/>
</svg>
