<svg width="118" height="120" viewBox="0 0 118 120" fill="none" xmlns="http://www.w3.org/2000/svg">
<path d="M104.24 77.2317C103.979 76.2908 104.554 74.984 105.103 74.0431C105.27 73.763 105.454 73.4925 105.651 73.2328C110.346 66.2566 112.857 58.0405 112.865 49.6317C112.943 25.534 92.6094 5.98401 67.4662 5.98401C45.5378 5.98401 27.2424 20.9079 22.956 40.7192C22.3148 43.6556 21.9906 46.6523 21.989 49.6578C21.989 73.7817 41.539 93.8544 66.6821 93.8544C70.681 93.8544 76.0651 92.6521 79.0185 91.8419C81.9719 91.0317 84.8992 89.9601 85.6571 89.6726C86.4341 89.3797 87.2575 89.2291 88.0878 89.2283C88.9938 89.2248 89.8913 89.4025 90.7276 89.751L105.547 95.0044C105.872 95.1419 106.215 95.23 106.566 95.2658C107.121 95.2658 107.653 95.0455 108.045 94.6534C108.437 94.2612 108.657 93.7294 108.657 93.1749C108.639 92.9356 108.595 92.6991 108.526 92.4692L104.24 77.2317Z" stroke="#1089FF" stroke-width="10" stroke-miterlimit="10" stroke-linecap="round"/>
<path d="M9.82493 54.0748C6.39697 60.2331 4.7387 67.2195 5.03344 74.2614C5.32818 81.3034 7.56445 88.1268 11.495 93.9771C12.0988 94.8893 12.4386 95.595 12.334 96.068C12.2295 96.5411 9.21595 112.239 9.21595 112.239C9.14347 112.606 9.17096 112.986 9.29556 113.339C9.42015 113.692 9.63727 114.005 9.92425 114.246C10.3072 114.551 10.7833 114.715 11.2729 114.711C11.5345 114.712 11.7935 114.658 12.0335 114.554L26.7247 108.804C27.7358 108.406 28.8638 108.424 29.8611 108.857C34.8113 110.785 40.2842 111.993 45.7598 111.993C53.1074 112.001 60.3261 110.063 66.682 106.376" stroke="#1089FF" stroke-width="10" stroke-miterlimit="10" stroke-linecap="round"/>
</svg>
