<svg width="90" height="91" viewBox="0 0 90 91" fill="none" xmlns="http://www.w3.org/2000/svg">
<path d="M79.4941 58.1997C79.2953 57.4839 79.7327 56.4898 80.1502 55.774C80.2779 55.561 80.4173 55.3552 80.5678 55.1577C84.1392 49.8507 86.0495 43.6006 86.0553 37.2038C86.115 18.8721 70.6464 4 51.5194 4C34.838 4 20.9203 15.3529 17.6595 30.4238C17.1717 32.6576 16.9251 34.9373 16.9239 37.2237C16.9239 55.5752 31.796 70.845 50.923 70.845C53.965 70.845 58.0608 69.9304 60.3075 69.314C62.5542 68.6977 64.7811 67.8825 65.3577 67.6638C65.9487 67.4409 66.5751 67.3264 67.2067 67.3258C67.8959 67.3231 68.5787 67.4583 69.2149 67.7234L80.4882 71.7198C80.7353 71.8244 80.9967 71.8914 81.2637 71.9186C81.6855 71.9186 82.0901 71.7511 82.3884 71.4528C82.6867 71.1545 82.8542 70.7499 82.8542 70.328C82.8404 70.1461 82.8071 69.9661 82.7548 69.7912L79.4941 58.1997Z" stroke="#1089FF" stroke-width="7" stroke-miterlimit="10" stroke-linecap="round"/>
<path d="M7.67043 40.5837C5.0627 45.2685 3.80122 50.5832 4.02544 55.9402C4.24966 61.2972 5.95084 66.4879 8.94092 70.9384C9.40021 71.6323 9.65868 72.1691 9.57915 72.529C9.49962 72.8888 7.20717 84.8303 7.20717 84.8303C7.15203 85.1097 7.17295 85.3988 7.26773 85.6674C7.36251 85.9361 7.52768 86.1743 7.74598 86.3572C8.03728 86.5893 8.39948 86.7143 8.77192 86.7111C8.97094 86.7117 9.16793 86.6711 9.3505 86.5919L20.5265 82.2177C21.2956 81.9145 22.1537 81.9288 22.9124 82.2575C26.6781 83.7248 30.8415 84.6434 35.0069 84.6434C40.5964 84.6493 46.0878 83.1751 50.9228 80.3706" stroke="#1089FF" stroke-width="7" stroke-miterlimit="10" stroke-linecap="round"/>
</svg>
