<svg width="116" height="100" viewBox="0 0 116 100" fill="none" xmlns="http://www.w3.org/2000/svg">
<path d="M60.3664 0.821058C59.6803 0.288966 58.8352 0 57.9652 0C57.0952 0 56.2501 0.288966 55.564 0.821058L0 43.9181L4.80627 49.9644L11.6 44.695V92.3075C11.6041 94.3465 12.4202 96.3007 13.8696 97.7424C15.319 99.1842 17.2836 99.9959 19.3333 100H96.6667C98.7164 99.9959 100.681 99.1842 102.13 97.7424C103.58 96.3007 104.396 94.3465 104.4 92.3075V44.7296L111.194 49.999L116 43.9527L60.3664 0.821058ZM65.7333 92.3075H50.2667V61.5377H65.7333V92.3075ZM73.4667 92.3075V61.5377C73.4646 59.4981 72.6492 57.5427 71.1994 56.1005C69.7495 54.6584 67.7837 53.8473 65.7333 53.8452H50.2667C48.2163 53.8473 46.2505 54.6584 44.8006 56.1005C43.3508 57.5427 42.5354 59.4981 42.5333 61.5377V92.3075H19.3333V38.6988L58 8.7366L96.6667 38.7372V92.3075H73.4667Z" fill="#1089FF"/>
</svg>
