<svg width="50" height="50" viewBox="0 0 50 50" fill="none" xmlns="http://www.w3.org/2000/svg">
<path d="M25 0C20.0555 0 15.222 1.46622 11.1108 4.21326C6.99952 6.96029 3.79521 10.8648 1.90302 15.4329C0.0108321 20.0011 -0.484251 25.0277 0.480379 29.8772C1.44501 34.7268 3.82603 39.1813 7.32234 42.6777C10.8187 46.174 15.2732 48.555 20.1227 49.5196C24.9723 50.4843 29.9989 49.9892 34.5671 48.097C39.1352 46.2048 43.0397 43.0005 45.7867 38.8892C48.5338 34.778 50 29.9445 50 25C50 21.7169 49.3533 18.466 48.097 15.4329C46.8406 12.3998 44.9991 9.64379 42.6777 7.32233C40.3562 5.00086 37.6002 3.15938 34.5671 1.90301C31.5339 0.646644 28.283 0 25 0V0ZM25 5C26.5064 5.00984 28.0072 5.1859 29.475 5.525C29.0404 6.50598 28.3707 7.36466 27.525 8.025C26.975 8.45 26.375 8.8 25.775 9.175C23.8756 10.1102 22.2741 11.5559 21.15 13.35C19.9186 15.9164 19.384 18.7616 19.6 21.6C19.6 25 19.6 27 17.225 28.775C13.8 31.45 8.57501 29.95 5.32501 28.6C5.11254 27.4117 5.0038 26.2071 5.00001 25C5.00001 19.6957 7.10715 14.6086 10.8579 10.8579C14.6086 7.10714 19.6957 5 25 5V5ZM7.50001 34.5C9.13358 34.9246 10.8123 35.1513 12.5 35.175C15.324 35.2527 18.091 34.3714 20.35 32.675C24.625 29.325 24.625 25.025 24.625 21.575C24.4354 19.5782 24.7536 17.5659 25.55 15.725C26.2735 14.7398 27.2375 13.9565 28.35 13.45C29.1449 12.9855 29.9127 12.4764 30.65 11.925C32.2036 10.6978 33.4101 9.08637 34.15 7.25C37.6674 9.04965 40.5729 11.8508 42.5 15.3C38.925 15.8 33.85 16.975 32.85 21.625C32.6243 22.736 32.5071 23.8663 32.5 25C32.5809 26.2671 32.3311 27.5335 31.775 28.675L31.525 29.1C29.9 31.8 28.075 34.875 30.55 39.1C30.85 39.625 31.175 40.125 31.5 40.625C32.1654 41.3936 32.6141 42.3255 32.8 43.325C30.3412 44.4088 27.6869 44.9788 25 45C21.4091 44.9821 17.8892 43.9976 14.8099 42.1501C11.7307 40.3025 9.20568 37.66 7.50001 34.5V34.5ZM37.325 40.8C36.8925 39.8017 36.3651 38.8473 35.75 37.95C35.475 37.55 35.2 37.15 34.95 36.725C33.975 35.025 34.325 34.225 35.9 31.725L36.15 31.3C37.1298 29.4302 37.5956 27.3338 37.5 25.225C37.4975 24.3865 37.5728 23.5496 37.725 22.725C38.125 20.9 42 20.4 44.4 20.225C45.37 23.9963 45.2093 27.9696 43.938 31.6502C42.6666 35.3309 40.3408 38.5563 37.25 40.925L37.325 40.8Z" fill="#1089FF"/>
</svg>
