<svg width="68" height="55" viewBox="0 0 68 55" fill="none" xmlns="http://www.w3.org/2000/svg">
<path d="M68 6.53331C65.4993 7.60728 62.778 8.38021 59.975 8.68124C62.8852 6.95994 65.0645 4.24056 66.1041 1.03332C63.3732 2.65068 60.3816 3.78481 57.2619 4.38539C55.958 2.99758 54.381 1.892 52.6291 1.13752C50.8773 0.383041 48.9882 -0.00416392 47.0794 3.3768e-05C39.3568 3.3768e-05 33.146 6.23228 33.146 13.8802C33.146 14.9542 33.2768 16.0281 33.4892 17.0614C21.9257 16.4593 11.6125 10.9593 4.75616 2.53849C3.50685 4.66295 2.85217 7.0819 2.86023 9.54367C2.86023 14.3602 5.32003 18.6073 9.07102 21.1051C6.86051 21.0184 4.70175 20.4135 2.77034 19.3395V19.5104C2.77034 26.2552 7.55919 31.8447 13.9416 33.1302C12.7432 33.4401 11.5105 33.5986 10.2723 33.6021C9.36522 33.6021 8.50715 33.5126 7.64091 33.3905C9.40608 38.8905 14.5463 42.8854 20.6672 43.0155C15.8784 46.75 9.88006 48.9467 3.3669 48.9467C2.19829 48.9467 1.11958 48.9061 0 48.7759C6.1781 52.7219 13.5085 55 21.4027 55C47.0304 55 61.0537 33.8624 61.0537 15.5156C61.0537 14.9135 61.0537 14.3114 61.0129 13.7093C63.726 11.7323 66.1041 9.28331 68 6.53331Z" fill="#1DA1F2"/>
</svg>
