<svg width="22" height="22" viewBox="0 0 22 22" fill="none" xmlns="http://www.w3.org/2000/svg">
<path d="M11 21C16.5228 21 21 16.5228 21 11C21 5.47715 16.5228 1 11 1C5.47715 1 1 5.47715 1 11C1 16.5228 5.47715 21 11 21Z" stroke="#4ECCA3" stroke-width="1.5" stroke-linecap="round" stroke-linejoin="round"/>
<path d="M1.66699 7.66666H20.3337" stroke="#4ECCA3" stroke-width="1.5" stroke-linecap="round" stroke-linejoin="round"/>
<path d="M1.66699 14.3333H20.3337" stroke="#4ECCA3" stroke-width="1.5" stroke-linecap="round" stroke-linejoin="round"/>
<path d="M10.4443 1C8.57245 3.99957 7.58008 7.46429 7.58008 11C7.58008 14.5357 8.57245 18.0004 10.4443 21" stroke="#4ECCA3" stroke-width="1.5" stroke-linecap="round" stroke-linejoin="round"/>
<path d="M11.5557 1C13.4275 3.99957 14.4199 7.46429 14.4199 11C14.4199 14.5357 13.4275 18.0004 11.5557 21" stroke="#4ECCA3" stroke-width="1.5" stroke-linecap="round" stroke-linejoin="round"/>
</svg>
