<svg xmlns="http://www.w3.org/2000/svg" width="6768" height="6410" viewBox="0 0 6782.55 6423.17" shape-rendering="geometricPrecision" image-rendering="optimizeQuality" fill-rule="evenodd" xmlns:v="https://vecta.io/nano"><style><![CDATA[.U{fill:#9cf}.V{fill:#1089ff}.W{fill:#1b1b43}.X{fill:#fff}.Y{fill:#ffa121}.Z{fill:#ffbc96}.a{fill:#23374d}.b{fill:#e5f2ff}]]></style><g fill-rule="nonzero"><path d="M3174.23 2362l4.55-9.38-56.33-27.38-4.55 9.38 56.33 27.38zm112.65 54.78l4.56-9.39-56.33-27.39-4.56 9.39 56.33 27.39zm112.65 54.76l4.57-9.39-56.34-27.38-4.55 9.39 56.32 27.38zm112.66 54.77l4.57-9.39-56.33-27.39-4.57 9.39 56.33 27.39zm112.7 54.76l4.51-9.42-56.32-27.34-4.56 9.38 56.37 27.38zm115.33 49.81l3.78-9.74c-19.55-7.57-38.99-15.53-57.78-23.64l-4.14 9.58c18.92 8.16 38.48 16.16 58.14 23.8zm118.55 41.46l3.13-9.96c-20.14-6.33-40.09-12.95-59.29-19.66l-3.45 9.86c19.31 6.74 39.37 13.39 59.61 19.76zm120.75 34.32l2.59-10.11-60.35-16.28-2.84 10.05 60.6 16.34zm117.76 38.34l4.63-9.35c-18.86-9.35-38.68-17.23-58.93-23.41l-3.05 9.98c19.7 6.02 38.99 13.69 57.35 22.78zm98.8 72.79l7.65-7.11c-3.04-3.26-6.15-6.48-9.34-9.64-11.67-11.55-24.52-22.49-38.2-32.5l-6.17 8.42c13.27 9.72 25.72 20.31 37.01 31.5a305.32 305.32 0 0 1 9.05 9.33zm63.81 104.38l9.82-3.52c-7.12-19.81-16.38-39.1-27.55-57.32l-8.91 5.45c10.8 17.62 19.77 36.26 26.64 55.39zm-89.23 10.55c19.78-3.76 40.44-5.92 61.38-6.44l-.26-10.44c-21.51.53-42.72 2.76-63.06 6.63l1.94 10.25zm183.77 8.66l2.74-10.07c-20.39-5.54-41.28-9.67-62.12-12.27l-1.29 10.36c20.35 2.54 40.76 6.56 60.67 11.98zm-296.21 38.12c15.2-11.58 33.13-21.57 53.34-29.71l-3.9-9.68c-21.07 8.49-39.83 18.95-55.76 31.08l6.32 8.31zm409.45 10.76l5.5-8.87c-17.72-10.98-36.63-20.81-56.21-29.24l-4.13 9.59c19.11 8.22 37.56 17.82 54.84 28.52zm-182.69 54.02c1.19-9.89 1.8-20.05 1.8-30.21 0-11.04-.71-22.33-2.13-33.54l-10.36 1.3c1.37 10.78 2.06 21.63 2.05 32.24a243.15 243.15 0 0 1-1.72 28.95l10.36 1.26zm275.77 26.52l8-6.72c-13.54-16.16-28.5-31.36-44.47-45.18l-6.84 7.89c15.56 13.46 30.12 28.27 43.31 44.01zm-567.48 10.94l10.44-.22-.03-2.79c0-15.65 3.19-30.98 9.22-44.33a129.66 129.66 0 0 1 5.18-10.18l-9.08-5.15c-2.03 3.58-3.9 7.26-5.61 11.04-6.64 14.68-10.15 31.5-10.15 48.62l.03 3.01zm241.21 78.49c14.05-15.09 25.61-33.32 34.36-54.14l-9.62-4.05c-8.28 19.69-19.18 36.88-32.39 51.09l7.65 7.1zm394.52 14.55l8.88-5.51-32.46-53.45-8.97 5.33 32.55 53.63zm-572.97 15.07l5.22-9.06c-17.2-9.91-31.59-24.45-41.63-42.02l-9.07 5.17c10.97 19.2 26.69 35.06 45.48 45.91zm69.31 17.83c19.26 0 38.7-3.72 56.24-10.73l-3.87-9.69c-16.31 6.52-34.42 9.98-52.37 9.98-1.57-.16-2.88-.12-4.17-.12-.85 0-1.69 0-2.59-.04l-.51 10.44c2.42.12 5.31-.04 7.27.16zm571.91 72.36l8.64-5.84-34.54-52.11-8.76 5.68 34.66 52.27zm72.65 102.35l8.37-6.27-36.75-50.52-8.51 6.01 36.89 50.78zm77.25 98.87l8.06-6.6-39.05-48.81-8.23 6.43 39.22 48.98zm82.06 94.99l7.72-7.01-41.45-46.76-7.9 6.8 41.63 46.97zm86.98 90.53l7.33-7.43-43.91-44.47-7.52 7.22 44.1 44.68zm90.49 86.72l7.21-7.55-45.31-43.22-7.21 7.52 45.31 43.25z" class="V"/><path d="M3366.68 420.9l-.26 6.32H1993.64c3.59-113.17 102.09-203.86 222.89-203.86 38.75 0 75.07 9.28 106.81 25.62-1.67-88.06 40.67-172.43 118.62-217.68 117-67.8 270.08-21.81 341.69 102.81 21.55 37.62 33.4 78.04 36.07 118.17 57.08-26.13 127.82-41.67 204.52-41.67 189.16 0 342.44 94.16 342.44 210.29z" class="U"/><path d="M6774.42 3620.89H5657.75v-1.29c0-92.83 124.06-168.36 276.56-168.36 60.27 0 117.64 11.69 165.92 33.82l5.16 2.34.38-5.64c2.22-33.36 11.99-65.34 29.03-95.12 29.06-50.56 75.1-86.47 129.64-101.09 49.91-13.4 101.37-6.88 144.87 18.29 60.11 34.91 96.6 101.89 95.23 174.88l-.12 6.51 5.82-2.97c26.17-13.44 55.8-20.58 85.69-20.58 95.86 0 173.45 69.61 178.49 159.21zm-1123.86 7.85h1131.99l-.13-4.05c-3.02-95.78-84.93-170.82-186.49-170.82-28.97 0-57.71 6.39-83.54 18.58-.75-73.32-38.34-140.09-99.16-175.37-45.31-26.26-98.88-33.03-150.83-19.09-56.56 15.16-104.29 52.37-134.38 104.77-16.7 29.15-26.64 60.34-29.62 92.87-48.21-21.09-104.81-32.2-164.09-32.2-156.82 0-284.39 79.05-284.39 176.17 0 1.91.01 3.75.23 5.67l.41 3.47z" class="V"/><path d="M3437.02 2112.46c-36.22-17.75-75.74-29.03-116.36-32.1-127.93-9.64-258.47 62.78-314.46 174.43-68.1-.62-135.16 37.12-168.22 94.66-33.08 57.55-30.74 132.46 5.84 187.87-81.05 14.05-153.83 67.39-189.69 139.06-35.87 71.66-33.95 159.83 5.09 229.83-89.23-45.36-203.35-41.24-288.95 10.45-85.59 51.69-139.54 149-136.54 246.42-55.57-87.17-162.13-141.5-268.07-136.67-105.95 4.83-206.88 68.61-254.01 160.48-49.75-148.82-182.34-268.93-339.22-307.32-156.95-38.38-332.96 6.22-450.34 114.12-176.64 27.63-305.36 219.38-259.3 386.28-95.41 78.95-144.2 207.31-124.21 326.98 2.85 17.17 7.12 34.07 12.66 50.57h2644.24c133.37 0 241.54-108.2 241.54-241.6h0V2112.46z" class="U"/><path d="M810.06 3757.52h1203.75c-62.59-60.76-124.18-126.65-184.38-196.47-1.71 3.06-3.3 6.19-4.84 9.32-2.79-8.69-5.92-17.29-9.22-25.77-57.44-67.35-113.63-138.33-168.45-212.11-45.42-31.99-96.43-56-150.34-69.69-36.2-9.23-73.49-13.69-110.72-13.69-118.86 0-238.01 45.38-324.31 127.43-168.84 27.22-292.25 215.25-251.49 380.98zm2626.96-711.85V2476c-19.13-5.6-38.82-9.28-58.78-10.86-7.43-.59-14.91-.88-22.38-.88-116.16 0-230.57 70.17-281.3 175.05-.59 0-1.17-.01-1.75-.01-65.18 0-129.11 37.53-160.72 94.54-31.9 57.52-29.56 132.43 5.8 187.87-10.6 1.9-21.09 4.52-31.31 7.81 179.63 54.24 361.01 90.63 550.44 116.15z" class="b"/><path d="M1711.65 3186.89c47.13-91.87 148.06-155.65 254.01-160.48 4.39-.2 8.73-.3 13.11-.3 101.51 0 201.68 53.4 254.96 136.97-3-97.42 50.95-194.73 136.54-246.42 46.02-27.78 100.26-41.83 154.45-41.83 46.65 0 93.25 10.4 134.5 31.38-11.49-20.55-19.71-42.68-24.76-65.49-407.78-164.88-822-439.08-1317.42-904.96l-74.18 66.29c141.12 149.82 336.84 299.41 563.29 493.95l-347.08-141.44c42.58 70.53 104.51 169.19 139.3 211.52-79.98-36.92-208.69-118.15-251.33-161.2 0 60.09 72.41 160.59 104 215.5-163.38-139.83-313.77-306.92-384.19-461.04l-72.7 64.96c101.79 213.16 218.54 434.64 347.14 648.79a457.4 457.4 0 0 1 31.14 6.48c156.88 38.39 289.47 158.5 339.22 307.32z" fill="#f5f5f5"/><path d="M1829.43 3561.05c47.25-86.8 141.62-146.39 240.45-150.94 4.14-.21 8.28-.29 12.41-.29 98.16 0 195.12 53.49 246.69 137.16-2.97-97.41 49.06-194.7 131.74-246.31 44.34-27.72 96.66-41.72 148.94-41.72 45.13 0 90.23 10.44 130.19 31.49-37.75-70.02-39.71-158.2-5.14-229.83 29.94-61.92 86.48-110.13 151.87-131.09-84.22-25.44-168.02-54.78-252.12-88.8 5.05 22.81 13.27 44.94 24.76 65.49-41.25-20.98-87.85-31.38-134.5-31.38-54.19 0-108.43 14.05-154.45 41.83-85.59 51.69-139.54 149-136.54 246.42-53.28-83.57-153.45-136.97-254.96-136.97-4.38 0-8.72.1-13.11.3-105.95 4.83-206.88 68.61-254.01 160.48-49.75-148.82-182.34-268.93-339.22-307.32a457.4 457.4 0 0 0-31.14-6.48c95.81 159.39 198.1 314.76 305.63 459.4 74.92 52.69 134.86 126.97 168.45 212.11l14.06 16.45z" fill="#e6e6e6"/><path d="M2013.81 3757.52h1181.67c133.37 0 241.54-108.2 241.54-241.6v-470.25c-189.43-25.52-370.81-61.91-550.44-116.15-65.39 20.96-121.93 69.17-151.87 131.09-34.57 71.63-32.61 159.81 5.14 229.83-39.96-21.05-85.06-31.49-130.19-31.49-52.28 0-104.6 14-148.94 41.72-82.68 51.61-134.71 148.9-131.74 246.31-51.57-83.67-148.53-137.16-246.69-137.16-4.13 0-8.27.08-12.41.29-98.83 4.55-193.2 64.14-240.45 150.94 60.2 69.82 121.79 135.71 184.38 196.47zm-198.44-212.92c-33.59-85.14-93.53-159.42-168.45-212.11 54.82 73.78 111.01 144.76 168.45 212.11z" fill="#f5f5f5"/><path d="M1193.17 1946.51c143 169.14 358.63 330.95 612.98 549.49l-347.08-141.44c42.58 70.53 104.51 169.19 139.3 211.52-79.98-36.92-208.69-118.15-251.33-161.2 0 60.09 72.41 160.59 104 215.5-185.12-158.41-353.51-351.8-407.87-521.68l150-152.19z" class="Y"/><path d="M1072.43 2068.98l94.38-95.71-14.17-18.21-85.34 98.01c1.6 5.27 3.31 10.57 5.13 15.91z" class="X"/><path d="M1308.96 2398.49c-18.85-36.24-61.83-102.72-62.45-142.03 25.16 28.61 100.53 83.05 147.26 108.03-20.55-28.04-57.49-93.22-82.88-139.79l202.54 96.09C1371.97 2183.13 1251 2079 1166.81 1973.27l-94.38 95.71c37.57 107.81 132.81 228.98 236.53 329.51z" fill="#ffc77a"/><path d="M2465.81 2529.6c-1.13 26.14 0 70.28 26.14 85.4 43.59 25.24 77.87-36.05 93.91-66.86 19.08-36.79 14.19-82.43-28.99-98.83-57.03-21.67-88.97 31.49-91.06 80.29zM398.42 3323.38c-1.13 26.14 0 70.28 26.13 85.44 43.61 25.21 77.88-36.08 93.93-66.9 19.07-36.78 14.18-82.42-28.97-98.83-57.04-21.63-88.98 31.52-91.09 80.29zm2262.55-1089.53c0 20.17 16.37 36.53 36.54 36.53 20.16 0 36.53-16.36 36.53-36.53 0-20.18-16.37-36.54-36.53-36.54-20.17 0-36.54 16.36-36.54 36.54zM783.76 2893.23c0 30.73 24.93 55.63 55.67 55.63 30.68 0 55.62-24.9 55.62-55.63 0-30.72-24.94-55.63-55.62-55.63-30.74 0-55.67 24.91-55.67 55.63z" class="U"/><g class="V"><path d="M3431.8 1888.72v1627.24c0 130.32-106 236.34-236.32 236.34H512.39c-130.3 0-236.3-106.02-236.3-236.34V1888.72H3431.8zM512.39 3762.73h2683.09c136.04 0 246.76-110.73 246.76-246.77V1878.28H265.62v1637.68c0 136.04 110.72 246.77 246.77 246.77z"/><path d="M3431.8 1878.28H276.09v-385.69c0-130.31 106-236.36 236.3-236.36h2683.09c130.32 0 236.32 106.05 236.32 236.36v385.69zm-3166.18 10.44h3176.62v-396.13c0-136.06-110.72-246.78-246.76-246.78H512.39c-136.05 0-246.77 110.72-246.77 246.78v396.13z"/></g><path d="M2985.62 1567.27c0 73.15 59.29 132.43 132.45 132.43 73.15 0 132.44-59.28 132.44-132.43s-59.29-132.46-132.44-132.46c-73.16 0-132.45 59.31-132.45 132.46z" class="U"/><path d="M2595.54 1567.27c0 73.15 59.29 132.43 132.45 132.43 73.15 0 132.45-59.28 132.45-132.43s-59.3-132.46-132.45-132.46c-73.16 0-132.45 59.31-132.45 132.46z" class="X"/><path d="M2727.99 1440.04c70.15 0 127.23 57.1 127.23 127.23 0 70.14-57.08 127.22-127.23 127.22s-127.19-57.08-127.19-127.22c0-70.13 57.04-127.23 127.19-127.23zm0 264.89c75.91 0 137.67-61.77 137.67-137.66 0-75.88-61.76-137.64-137.67-137.64s-137.63 61.76-137.63 137.64c0 75.89 61.72 137.66 137.63 137.66z" class="V"/><path d="M1719.85 1693.68h527.33c69.81 0 126.39-56.62 126.39-126.41s-56.58-126.43-126.39-126.43h-527.33c-69.79 0-126.38 56.64-126.38 126.43s56.59 126.41 126.38 126.41z" class="X"/><path d="M2247.18 1446.08c66.8 0 121.17 54.36 121.17 121.19s-54.37 121.18-121.17 121.18h-527.33c-66.84 0-121.2-54.35-121.2-121.18s54.36-121.19 121.2-121.19h527.33zm-527.33 252.81h527.33c72.57 0 131.61-59.04 131.61-131.62s-59.04-131.61-131.61-131.61h-527.33c-72.58 0-131.62 59.03-131.62 131.61s59.04 131.62 131.62 131.62zM643.72 962.95c211.48 185.06 576.15 57.49 689.49 205.27l-323.8 256.45-365.69-461.72z" class="V"/><path d="M1333.21 1168.22h0c16.16 43.15 7.4 91.65-22.89 126.38l-229.47 262.83-71.44-132.76 323.8-256.45z" class="U"/><path d="M164.46 1342.42c131.73 248.25-76.06 573.98 41.84 718.16l323.79-256.41-365.63-461.75z" class="V"/><path d="M206.3 2060.58h0c38.25 25.66 87.55 28.23 128.25 6.7l308.37-163.11-112.83-100-323.79 256.41z" class="U"/><path d="M0 644.79l288.27 105.82L36.89 949.68z" class="a"/><path d="M36.89 949.68c40.3 456.15 377.36 881.84 786.77 1118.27l373.04-295.11c-156.55-492.53-448.07-844.96-908.43-1022.23L36.89 949.68z" class="U"/><path d="M1196.7 1772.84l161.84 112.05-462.87 366.53-72.01-183.47z" class="V"/><path d="M260.78 1253.04c59.37 74.92 168.27 87.61 243.19 28.24 75.02-59.38 87.66-168.28 28.29-243.25-59.38-74.97-168.28-87.61-243.25-28.23-74.97 59.37-87.61 168.27-28.23 243.24z" class="X"/><path d="M433.55 1038.77l3.36-9.85c-10.25-3.58-21.01-5.74-31.88-6.48l-.74 10.41a114.72 114.72 0 0 1 29.26 5.92zm-87.33 5.58c8.94-4.5 18.45-7.68 28.24-9.62l-1.99-10.25c-10.71 2.11-21.12 5.64-30.86 10.48l4.61 9.39zm136.17 27.78l7.91-6.77c-7.06-8.31-15.25-15.66-24.25-21.81l-5.86 8.66c8.2 5.58 15.71 12.29 22.2 19.92zm-180.4 11.5a111.92 111.92 0 0 1 19.53-22.6l-6.95-7.8c-8.2 7.29-15.37 15.54-21.35 24.65l8.77 5.75zm205.73 41.95l10.31-1.82c-1.94-10.76-5.3-21.23-9.97-31.08l-9.45 4.5c4.27 8.99 7.35 18.56 9.11 28.4zm-224.06 14.29c.51-10.02 2.34-19.86 5.41-29.37l-9.91-3.19c-3.35 10.31-5.35 21.12-5.92 32.05l10.42.51zm228.67 48.28c3.76-10.25 6.15-20.95 7.12-31.82l-10.42-.92c-.85 9.97-3.07 19.76-6.49 29.15l9.79 3.59zm-225.31 14.34l9.22-4.84c-4.61-8.82-8.02-18.27-10.13-28l-10.19 2.22c2.33 10.64 6.03 20.94 11.1 30.62zm187.91 38.31c8.48-6.94 15.94-14.97 22.2-23.79l-8.48-6.09c-5.75 8.14-12.58 15.48-20.38 21.86l6.66 8.02zm-151.76 4.05l6.2-8.43c-7.97-5.92-15.2-12.87-21.4-20.78l-8.2 6.49c6.78 8.6 14.63 16.23 23.4 22.72zm92.84 22.54c10.82-1.71 21.35-4.84 31.2-9.34l-4.27-9.5c-9.05 4.09-18.67 7-28.58 8.53l1.65 10.31zm-32.56.85l1.08-10.36c-9.96-1.08-19.69-3.47-29.03-7.06l-3.76 9.74c10.14 3.92 20.84 6.54 31.71 7.68z" fill="#9192ff"/><path d="M1249.7 2231.45l8.25-6.54c12.12-9.59 14.17-27.34 4.61-39.45L937.8 1775.41c-9.57-12.11-27.33-14.17-39.45-4.58l-8.2 6.53c-12.12 9.59-14.23 27.35-4.61 39.46l324.71 410.04c9.56 12.12 27.32 14.18 39.45 4.59z" class="a"/><path d="M1835.12 4676.8h62.65v-10.44h-62.65v10.44zm-125.24 0h62.62v-10.44h-62.62v10.44zm-125.29 0h62.68v-10.44h-62.68v10.44zm-125.24 0h62.62v-10.44h-62.62v10.44zm-125.29 0h62.68v-10.44h-62.68v10.44zm-125.24 0h62.62v-10.44h-62.62v10.44zm-125.29 0h62.67v-10.44h-62.67v10.44zm-125.24 0h62.62v-10.44h-62.62v10.44zm-125.29 0h62.67v-10.44H833v10.44zm-125.24 0h62.62v-10.44h-62.62v10.44zm-119.54 20.71c18.21-9.27 37.62-15.54 57.77-18.58l-1.53-10.32c-21.29 3.22-41.79 9.82-60.97 19.58l4.73 9.32zm1428.26 2.5l5.01-9.14c-18.92-10.36-39.21-17.54-60.37-21.34l-1.89 10.27c20.09 3.6 39.34 10.4 57.25 20.21zM504.19 4782.9c9-18.25 20.78-34.91 35.18-49.48l-7.51-7.31c-15.09 15.37-27.61 32.9-37.06 52.19l9.39 4.6zm1593.88 4.84l9.52-4.34c-8.94-19.55-20.92-37.45-35.62-53.24l-7.64 7.14c13.95 14.95 25.31 31.9 33.74 50.44zM474.36 4902.78h10.42v-36.2a193.57 193.57 0 0 1 1.71-25.69l-10.31-1.38c-1.19 8.9-1.82 18-1.82 27.07v36.2zm1640.83 5.51h10.44v-41.71c0-7.1-.37-14.33-1.13-21.42l-10.4 1.12c.72 6.73 1.09 13.57 1.09 20.3v41.71zM474.36 5028.04h10.42v-62.63h-10.42v62.63zm1640.83 5.51h10.44v-62.63h-10.44v62.63zM474.36 5153.31h10.42v-62.64h-10.42v62.64zm1640.83 5.51h10.44v-62.63h-10.44v62.63zM474.36 5278.57h10.42v-62.63h-10.42v62.63zm1640.83 5.51h10.44v-62.63h-10.44v62.63zM474.36 5403.84h10.42v-62.63h-10.42v62.63zm1640.83 5.51h10.44v-62.64h-10.44v62.64zM474.36 5529.1h10.42v-62.63h-10.42v62.63zm1640.83 5.51h10.44v-62.63h-10.44v62.63zM480.45 5655.12l10.14-2.55c-3.87-15.2-5.81-30.94-5.81-46.76v-14.08h-10.42v14.08c0 16.7 2 33.27 6.09 49.31zm1637.58 5.51c5.05-17.74 7.6-36.2 7.6-54.82v-8.56h-10.44v8.56c0 17.66-2.42 35.15-7.18 51.94l10.02 2.88zM548.71 5761.52l6.55-8.11c-15.89-12.86-29.55-28.05-40.48-45.22l-8.82 5.68c11.61 18.08 26.01 34.11 42.75 47.65zm1498.09 3.5c17.11-13.07 31.94-28.69 44.04-46.43l-8.6-5.89c-11.48 16.83-25.55 31.65-41.75 44.05l6.31 8.27zM667.06 5805.9l.34-10.44c-20.44-.75-40.47-4.76-59.49-11.9l-3.7 9.77c20.1 7.52 41.22 11.73 62.85 12.57zm1260.19.13c21.63-.22 42.84-3.85 63.09-10.78l-3.38-9.85c-19.17 6.55-39.29 9.98-59.8 10.19l.09 10.44zm-125.32 0h62.62v-10.44h-62.62v10.44zm-125.23 0h62.62v-10.44h-62.62v10.44zm-125.3 0h62.62v-10.44h-62.62v10.44zm-125.23 0h62.61v-10.44h-62.61v10.44zm-125.3 0h62.62v-10.44h-62.62v10.44zm-125.24 0h62.62v-10.44h-62.62v10.44zm-125.29 0h62.62v-10.44h-62.62v10.44zm-125.24 0h62.62v-10.44H925.1v10.44zm-125.29 0h62.62v-10.44h-62.62v10.44zm-125.24 0h62.62v-10.44h-62.62v10.44z" class="U"/><path d="M788.82 5625.1h1332.59c85.1 0 154.12-69.02 154.12-154.16v-852.06c0-85.14-69.02-154.12-154.12-154.12H788.82c-85.16 0-154.15 68.98-154.15 154.12v852.06c0 85.14 68.99 154.16 154.15 154.16z" class="V"/><path d="M1990.22 5503.34h-177.67v-360.81h177.67zm-297.53 0h-177.62V5154.1h177.62zm-297.55 0h-177.67v-531.67h177.67zm-297.55 0H919.92v-687.63h177.67zm834.17-833.48H978.45v-41.67h953.31z" class="X"/><path d="M4834.38 3332.03c30.21-104.72 94.15-196.54 181.9-261.19l35.24-25.97-29.91 618.95-231.32-178.93 44.09-152.86z" class="Y"/><path d="M4091.01 4080.2l51.38-100.63c13.02-25.52 36.13-44.35 63.72-51.99l151.21-41.88 388.99-248.36 43.98-152.45 231.32 178.93-2.1 43.46c-4.21 87.23-57.7 164.44-137.87 199.01l-377.7 162.92-179.54 4.01c-57.85 19.92-77.8 69.82-113.7 51.86-13.39-6.68 38.9-92.78 38.9-92.78l-86.78 95.75-71.81-47.85z" class="Z"/><path d="M4792.62 3701.06l9.12-7.77-50.86-59.83-9.13 7.76z" fill="#d28572"/><path d="M4767.55 4330.9l-283-24.98c-184.22-16.28-344.47 132.49-353.45 328.12l-63.96 1393.83 390.4 12.15 310.01-1709.12z" fill="#182736"/><path d="M4426.14 6026.16l-11.97 385.02h-578.5l285.26-237.38 17.95-185.51z" class="W"/><path d="M4235.31 6277.02l14.61-18.96-121.68-93.74-14.62 18.96z" class="X"/><path d="M4557.8 6026.16l-11.97 385.02h-578.51l285.27-237.38 17.95-185.51z" class="U"/><path d="M4366.97 6277.02l14.61-18.96-121.69-93.74-14.61 18.96z" class="X"/><path d="M4126.91 6064.07h478.77l341.24-1049.94 47.75-146.97 682.24-3.01c42.14-.58 82.47-20.08 116.71-48.94 72.53-61.16 105.92-157.24 92.75-251.23l-59.84-426.91-1013.55 131.74c-192.22 25.05-347.46 168.9-386.96 358.63l-299.11 1436.63z" class="a"/><path d="M4854.04 4867.16l92.88 146.97 47.75-146.97z" class="W"/><path d="M4979.35 4059.74l15.32 59.38 35.91 146.6 472.78-19.62 340.4-14.12c90.25-3.72 155.6-87.52 137.17-175.96l-158.71-763.74c-20.35-129.88-125.8-229.82-256.62-243.35l-388.39-39.97-125.68 35.91c-122.69 65.83-122.81 185.15-128.67 263.32-25.74 342.06 5.98 549.24 56.49 751.55z" class="Y"/><path d="M5017.91 4214.01v-.03l247.87 1.59h1.34c26.59 0 52.95-3.47 78.49-10.06h0c51.11-13.03 99.22-38.42 140.04-72.53 25.73-21.55 47.87-46.81 66.42-74.58h0 0c13.89-20.84 25.74-43.21 35.55-66.55l113.59-269.03-76.13-35.16 165.54-176.96c-60.21 339.67-122.08 610.8-287.26 735.4l-472.78 19.62-12.67-51.71z" fill="#ba792b"/><path d="M5393.84 3229.89c-20.71 22.18-44.29 41.55-70.64 56-26.26 14.45-54.83 25.01-84.42 28.52-29.29 3.8-60.2 1.33-85.91-12.65-26.28-13.07-43-40.67-46.15-70.53l-4.66.29c.16 15.66 4.11 31.49 11.89 45.56 7.86 14.07 19.85 25.76 33.78 33.82 28.13 16.25 61.52 19.21 92.55 15.24 31.24-4.3 61.31-15.24 87.98-31.48 26.84-16.03 50.3-37.29 69.17-61.76l-3.59-3.01zm-481.44 466.62l8.95-.63c-8.6-120.42.12-268.44 25.9-439.89l-8.89-1.33c-25.87 172.11-34.61 320.76-25.96 441.85zm-358.59 512.34h-444.85v-87.77h444.85z" class="W"/><path d="M3338.95 4208.85h893.69l-410.94-785.96H2928z" class="V"/><path d="M5295.4 2380.58c104.73-103.24 302.22-59.85 299.23 113.7 215.44 56.86 227.41 293.25 140.63 414.44l-74.81 5.98-16.45-88.27-43.39 89.77-209.46 13.46-95.75-549.08z" class="W"/><path d="M5120.35 2766.58v329.75l.36 8.74c5.15 67.86 70.86 115.85 138 98.52 98.99-25.64 167.81-115.16 166.97-217.38l-1.68-219.63h-303.65z" class="Z"/><path d="M5120.35 2909.13v187.2l.36 8.74c88.21-14.48 190.19-116.58 215.08-227.78l-215.44 31.84z" class="W"/><path d="M4941.89 2791c4.54 26.21 10.65 53.03 18.79 78.51 26.34 83.67 73.61 153.09 158.23 141.01 198.93-28.49 309.65-233.4 309.65-233.4l-136.1-155.61-91.32-122.8-273.73 118.25s-1.44 83.68 14.48 174.04z" class="Z"/><path d="M5369.71 2724.69c-87.31-2.79-154.83-47.26-183.53-173.55 0 0-203.47 175.55-303.22 81.79-83.53-78.52 58.17-259.15 292.71-280.67 85.44-7.84 170.61 18.83 237.57 72.48 113.67 91.09 124.53 302.94 18.3 376.26l-61.83-76.31z" class="W"/><path d="M5471.94 2503.26c5.7-20.63 1.46-43.48-7.75-63.15-9.35-19.81-23.77-37.06-40.98-50.43-17.21-13.39-37.41-22.97-58.63-27.42-21.15-4.35-43.64-3.68-63.2 4.85 20.19 6.5 37.68 13.4 54.12 21.88 16.39 8.39 31.53 18.12 45.72 29.06 14.15 10.97 27.3 23.18 39.13 37 11.9 13.9 22.34 29.14 31.59 48.21z" class="Y"/><path d="M5332.68 2713.38c-16.88 42.17-2.27 87.68 32.64 101.65 34.9 13.97 76.88-8.89 93.77-51.06 16.87-42.17 2.26-87.69-32.64-101.66-34.91-13.97-76.88 8.89-93.77 51.07z" class="Z"/><path d="M5395.89 2783.86c-1.5-14.58-1.6-28.37 2.64-41.07 4.12-12.73 12.21-23.82 21.52-35.23l-2.94-3.64c-13.53 7.04-25.01 19.67-29.92 35.23-4.92 15.56-2.78 32.52 4.21 46.06l4.49-1.35zm-326.95-44.14c0 12.36 9.05 22.37 20.22 22.37 11.16 0 20.21-10.01 20.21-22.37s-9.05-22.37-20.21-22.37c-11.17 0-20.22 10.01-20.22 22.37zm-106.14 17.62c1.34 10.92 10.43 18.78 20.29 17.57 9.87-1.22 16.78-11.05 15.44-21.97-1.35-10.91-10.43-18.78-20.3-17.57-9.86 1.22-16.77 11.05-15.43 21.97zm107.17-73.78c-.8 10.45 15.91 11.45 40.55 12.18 24.64.74 41.67 8.35 41.86 1.75.2-6.61-18.03-23.59-42.33-27.7-25.07-4.24-39.11 1.33-40.08 13.77zm-78.72 10.07c1.82 10.3-10.48 12.96-28.7 16.15-18.2 3.18-29.96 12.45-30.88 5.91-.91-6.54 10.66-25.23 28.23-31.73 18.12-6.72 29.2-2.59 31.35 9.67zm29.3 82.31c-4.67 5.71-9.87 10.66-15.19 15.74l-8.07 7.5c-2.8 2.53-5.81 5.32-8.5 9.54-1.32 2.14-2.4 4.89-2.57 7.96-.24 3.12.74 6.16 2 8.49 2.77 4.65 6.06 7.33 9.65 9.75 7.15 4.7 14.89 6.64 22.37 8.1l1.76-4.34c-6.44-4.15-12.85-7.88-17.84-12.19-2.39-2.12-4.74-4.71-5.58-6.7-.93-1.99-.66-2.66.45-4.99 2.66-4.37 9.44-10.18 13.87-16.24 4.84-6.01 9.2-12.84 11.75-20.39l-4.1-2.23zm101.32 73.66c-12.23 13.96-24.96 26.87-40.28 35.07-15.22 8.43-32.55 10.79-50.88 8.82l-1.25 4.51c8.86 3.93 18.84 6.05 28.93 5.47 10.09-.43 20.07-3.47 28.87-8.33 17.66-9.81 30.68-25.66 38.55-43.01l-3.94-2.53z" class="W"/><path d="M5193.64 2836.9c27.28 0 49.39-22.11 49.39-49.39 0-27.27-22.11-49.39-49.39-49.39s-49.39 22.12-49.39 49.39c0 27.28 22.11 49.39 49.39 49.39zm-232.96 32.61c7.66-8.73 12.33-20.1 12.33-32.67 0-20.83-12.93-38.54-31.12-45.84 4.54 26.21 10.65 53.03 18.79 78.51h0z" fill="#ffa988"/><path d="M5505.35 3374.99l285.27 135.67-89.47 212.07-299.09-137.92z" class="Y"/><path d="M4448.68 4110.55l12.86-6.63-2.85-5.64s-5.28 2.55-12.92 6.64l2.91 5.63z" fill="#c5c5ff"/><path d="M4330.39 4140.03c9.21 18.21 79.83-13.99 112.75-30.14-25.5 14.11-69.42 41.88-49.91 57.08 15.67 12.1 50.39-13.66 164.09-60.8-17.24 8.14-118.85 56.49-93.24 74.78 27.89 19.88 147.58-23.92 147.58-23.92l103.77 55.78h119.7l430.65 2.76c27.04.12 53.85-3.34 79.83-10.06 51.11-13.03 99.22-38.42 140.04-72.53 25.73-21.55 47.87-46.81 66.42-74.58 13.89-20.84 25.74-43.21 35.55-66.55l113.59-269.03-299.1-138.05-156.09 316.84-514.66 111.78-143.63-35.91c-30.89-7.77-74.58 5.3-101.74 21.92-66.32 40.59-164.22 123.26-155.6 140.63z" class="Z"/><path d="M5345.61 4205.51h0c51.11-13.03 99.22-38.42 140.04-72.53 25.73-21.55 47.87-46.81 66.42-74.58-22.62-18.21-51.34-29.06-82.58-29.06-72.77 0-131.66 58.88-131.66 131.66 0 15.65 2.75 30.65 7.78 44.51z" fill="#ffa988"/><path d="M4732.09 4011.13c-35.69-11.85-71.85-22.08-108.75-29.81-18.45-3.8-37.13-6.89-56.18-7.97-9.53-.54-19.16-.38-28.88.75-4.81.96-9.59 2.21-14.39 3.34-4.57 1.59-9.02 3.47-13.54 5.18-35.02 15.86-65.53 38.58-95.03 61.92-29.49 23.51-57.34 48.77-84.4 75.08l-1.25 1.2-.26 1.55c-.96 5.68-.3 10.9 2.84 16.2 1.93 2.22 3.91 4.68 6.51 5.72 2.5 1.63 4.99 2.21 7.48 2.63 9.91 1.63 18.59-.42 26.88-2.63 16.64-4.59 31.49-12.19 46.46-19.54 14.65-7.81 29.09-15.95 43.08-24.76 14.24-8.43 27.77-17.87 41.63-26.81l-6.32-10.14c-24.49 14.53-48.3 29.77-71.07 47.05-11.3 8.82-22.49 17.75-32.11 29.52-2.31 3.14-4.63 6.27-6.24 10.53-.89 2-1.37 4.55-1.43 7.3.21 2.89 1.1 5.94 3.07 8.19 3.77 4.34 8.31 5.8 12.14 6.76 4 1.05 7.73 1.26 11.53 1.63l1.17.13 1.27-.54 129.93-54.41-3.89-9.15c-20.47 9.44-40.39 19.59-59.39 32.07-9.26 6.6-19 12.61-25.83 24.05-1.55 2.88-2.68 7.31-1.06 11.44 1.64 4.01 4.81 6.56 7.71 7.94 6.01 3.04 12.06 3.67 17.88 4.01 23.29.54 45.16-4.93 66.86-10.28 21.65-5.71 42.91-12.48 63.94-20.08l-1.58-4.39c-20.99 7.02-42.36 13.2-63.88 18.34-21.45 4.84-43.54 9.56-64.88 8.52-10.18-.42-22.32-4.89-17.36-11.62 4.67-7.85 14.3-14.52 23.16-20.42 18.38-11.68 38.37-21.58 58.41-30.47l-3.89-9.15-130.39 53.28 2.45-.42c-3.21-.33-6.54-.54-9.37-1.33-2.95-.63-5.32-1.97-6.12-2.93-1.82-.74.63-7.18 4.71-11.98 8.27-10.06 19.23-18.96 30.19-27.35 22.19-16.7 45.99-31.77 70.02-45.89l-6.32-10.1c-13.77 8.81-27.12 18.33-41.13 26.68-13.81 8.73-27.96 16.79-42.24 24.51-14.45 7.18-29.05 14.65-44.18 18.83-7.41 2.13-15.3 3.59-21.63 2.51l-2.31-.38c-.72-.21-1.15-.67-1.75-.92-1.39-.42-1.81-1.5-2.74-2.17-1.18-1.8-1.7-5.13-1.28-7.56l-1.51 2.76c26.49-26.14 54.35-51.19 83.1-74.87 28.81-23.42 58.85-46.18 92.05-61.71l12.63-5.06c4.32-1.04 8.59-2.25 12.93-3.17 8.91-1.13 18.03-1.46 27.23-1.04 18.4.75 36.89 3.3 55.2 6.68 36.65 6.8 72.96 16.2 108.65 27.22l1.47-4.47z" fill="#d28572"/><path d="M5699.34 3726.87l3.75-8.15-295.15-136.16 122.93-287.69-8.25-3.55-126.36 295.71z" class="W"/><path d="M5672.77 6335.4h-15.66V4986.87h15.66z" class="b"/><path d="M5287.92 5046.71h754.05c51.24 0 92.76-41.55 92.76-92.79h0c0-51.23-41.52-92.73-92.76-92.73h-754.05c-51.23 0-92.76 41.5-92.76 92.73h0c0 51.24 41.53 92.79 92.76 92.79zm59.85 1376.46h634.36v-15.33c0-77.04-62.45-139.5-139.49-139.5h-355.4c-77.03 0-139.47 62.46-139.47 139.5v15.33z" class="U"/><g class="b"><path d="M3429.34 6418.11L4765.9 4299.58l-13.24-8.35-1336.55 2118.53z"/><path d="M4752.66 6418.11l13.24-8.35-1336.56-2118.53-13.23 8.35z"/></g><path d="M5261.98 4385.47H2920.02v-176.62h2341.96z" class="U"/><path d="M5065.66 424.6c264.12 0 479 214.84 479 478.97 0 264.08-214.88 478.98-479 478.98-264.11 0-478.98-214.9-478.98-478.98 0-264.13 214.87-478.97 478.98-478.97zm0 968.37c269.87 0 489.43-219.51 489.43-489.4 0-269.88-219.56-489.45-489.43-489.45-269.86 0-489.42 219.57-489.42 489.45 0 269.89 219.56 489.4 489.42 489.4z" class="V"/><path d="M4202.18 711.79c0 294.08 238.42 532.54 532.52 532.54s532.52-238.46 532.52-532.54-238.42-532.54-532.52-532.54-532.52 238.46-532.52 532.54z" class="U"/><path d="M4734.51 721.87l295.22-231.41-9.66-12.35-285.18 223.6-159.02-134.68-10.12 11.95z" class="a"/><path d="M6116.6 1860.2h270.41c43.52 0 78.79 35.27 78.79 78.79v270.41c0 43.52-35.27 78.79-78.79 78.79h-192.98l-83.15 114.82V2287.9c-40.83-2.94-73.07-36.92-73.07-78.5v-270.41c0-43.52 35.28-78.79 78.79-78.79z" class="X"/><path d="M6387.01 1865.42c40.57 0 73.57 33 73.57 73.57v270.41c0 40.57-33 73.57-73.57 73.57h-195.65l-75.25 103.94v-103.87l-4.85-.34c-38.25-2.76-68.23-34.96-68.23-73.3v-270.41c0-40.57 33.01-73.57 73.57-73.57h270.41zm-281.34 553.7l91.03-125.71h190.31c46.33 0 84.01-37.69 84.01-84.01v-270.41c0-46.32-37.68-84.01-84.01-84.01H6116.6c-46.32 0-84 37.69-84 84.01v270.41c0 42.16 31.72 77.81 73.07 83.22v126.5z" class="U"/><path d="M6257.35 2213.36l108.23-156.35-25.74-17.83-79.66 115.06-119.97-214.69-27.34 15.28z" class="V"/><path d="M6571.93 6423.17H156.49v-15.66h6415.44z" class="W"/></g></svg>